<svg width="51" height="51" viewBox="0 0 51 51" fill="none" xmlns="http://www.w3.org/2000/svg">
<circle cx="25.2067" cy="25.2067" r="25.2067" fill="#C16BC6"/>
<mask id="mask0_1_306" style="mask-type:alpha" maskUnits="userSpaceOnUse" x="0" y="0" width="51" height="51">
<path d="M25.2067 50.4134C39.128 50.4134 50.4134 39.128 50.4134 25.2067C50.4134 11.2854 39.128 0 25.2067 0C11.2854 0 0 11.2854 0 25.2067C0 39.128 11.2854 50.4134 25.2067 50.4134Z" fill="#FFBA55"/>
</mask>
<g mask="url(#mask0_1_306)">
<path d="M33.7509 8.99397L29.7351 10.6944C29.7351 10.6944 29.58 10.7051 29.3153 10.7238C27.663 10.8334 21.6767 11.2291 21.4467 11.2291C21.1794 11.2291 15.8401 11.4457 15.8401 11.4457V9.83349C15.8401 9.83349 16.3775 2.64669 24.7942 2.25903C25.4544 2.12292 26.1317 2.08954 26.8021 2.16008C28.933 2.35527 32.2055 3.59318 33.7509 8.99397Z" fill="#5E1212"/>
<g style="mix-blend-mode:multiply">
<path d="M33.7509 8.99403L29.7351 10.6945C29.7351 10.6945 29.5801 10.7052 29.3153 10.7239C24.7995 10.4137 15.8401 9.83355 15.8401 9.83355C19.9548 9.67541 24.0563 9.27185 28.1229 8.62506C28.4557 8.57293 28.7714 8.44237 29.0438 8.24417C29.3162 8.04596 29.5376 7.7858 29.6896 7.48516C29.8416 7.18452 29.9199 6.85202 29.9181 6.51513C29.9162 6.17825 29.8343 5.84664 29.679 5.54768C28.9131 4.26779 27.9411 3.1232 26.8021 2.16014C28.933 2.35533 32.2056 3.59324 33.7509 8.99403Z" fill="#5E1212"/>
</g>
<path d="M40.1703 13.2292C40.165 13.3343 40.1516 13.4389 40.1302 13.542C39.9751 14.2933 39.1784 17.2825 36.1518 18.4482L35.3417 19.4134L33.3444 21.7902L28.2645 19.3839L19.5751 20.9614L15.84 21.0256L13.4257 19.785C13.4257 19.785 4.73363 14.5232 12.9498 10.7721C14.1848 10.2173 15.4931 9.84278 16.8346 9.65984C19.8799 9.22671 26.8688 8.38717 32.4087 8.85239H32.4113C36.7854 9.21602 40.2532 10.3951 40.1703 13.2292Z" fill="#5E1212"/>
<g style="mix-blend-mode:multiply">
<path d="M40.1704 13.2291C40.1651 13.3343 40.1517 13.4389 40.1303 13.542C39.9752 14.2932 39.1785 17.2824 36.1519 18.4481L35.3418 19.4133L33.7509 19.2449C42.0446 13.6248 32.4088 8.85237 32.4088 8.85237H32.4115C36.7855 9.21598 40.2533 10.3951 40.1704 13.2291Z" fill="#5E1212"/>
</g>
<path d="M53.7979 53.7404L30.9783 54.5345L30.1601 54.5639L24.5748 54.7591L23.762 54.7858L0.0573968 55.612C0.0573968 55.612 -5.55729 39.8374 8.34573 36.0943L8.28958 35.7654C8.22947 35.3988 8.29103 35.0227 8.46484 34.6944C8.63864 34.3661 8.91515 34.1037 9.25211 33.9473L11.5541 32.8859C11.5541 32.8859 11.8215 27.0039 16.9014 25.3996L32.676 25.9344C32.676 25.9344 39.8949 27.5386 40.697 33.688C40.697 33.688 43.1033 33.688 43.638 35.8269C45.776 36.3479 47.7296 37.4464 49.2856 39.0024C50.8416 40.5584 51.9401 42.512 52.4611 44.65L53.7979 53.7404Z" fill="#F53C42"/>
<path style="mix-blend-mode:multiply" d="M19.3551 28.3406H31.8595C31.8595 28.3406 37.7561 27.8059 36.4192 33.6879C36.4192 33.6879 32.1414 43.8478 29.4677 44.6499C29.4677 44.6499 35.6171 44.6499 37.4887 39.0352C37.4887 39.0352 40.6971 28.0732 32.1414 27.0038L18.6179 27.4955C17.5833 27.5261 16.5963 27.9366 15.8452 28.6488C14.3871 30.0529 12.7809 32.9372 15.1222 38.1208C15.3802 38.6954 15.7907 39.1884 16.3092 39.5462L18.8761 41.3079C18.8761 41.3079 15.6984 37.5647 15.6984 36.2279C15.6984 36.2279 15.2563 33.3546 15.8288 31.0538C16.0306 30.2736 16.4871 29.583 17.1258 29.0915C17.7646 28.6 18.5491 28.3357 19.3551 28.3406Z" fill="url(#paint0_linear_1_306)"/>
<path d="M32.4086 39.3027L29.3045 42.5111L26.0079 43.6768L19.6445 37.7359C18.912 35.9018 18.2382 27.8059 18.2382 27.8059L21.4466 26.4691L28.4409 27.1375L29.4221 27.6776L31.4541 28.7952L31.8471 33.1265L32.4086 39.3027Z" fill="#FFA787"/>
<path d="M31.8471 33.1263C29.4221 33.661 19.8691 35.2626 18.2382 27.8057C18.2382 27.8057 24.6871 28.0303 29.4221 27.6774L31.4541 28.795L31.8471 33.1263Z" fill="#FF8D69"/>
<path d="M19.5753 37.431C19.5753 37.431 24.6553 44.9173 32.4089 39.3026C32.4089 39.3026 30.5373 43.313 27.0616 45.1846C27.0616 45.1846 23.0511 43.0457 22.5163 42.5109C22.5164 42.5109 20.1101 40.1046 19.5753 37.431Z" fill="#5E1212"/>
<g style="mix-blend-mode:multiply">
<path d="M45.187 45.1846C45.187 45.1846 43.714 51.7623 43.8099 54.0881L45.4535 54.0309C45.4535 54.0309 46.312 49.9971 48.1836 48.6603C48.1836 48.6603 45.2425 50.7993 44.9752 52.6708L45.187 45.1846Z" fill="#F53C42"/>
</g>
<g style="mix-blend-mode:multiply">
<path d="M4.60245 42.5111C4.60245 42.5111 9.68703 49.9974 9.41735 55.612L8.30561 55.3248C8.30561 55.3248 8.07819 49.1952 5.13717 48.3931C5.13717 48.3931 7.54346 49.4626 8.34557 51.0668C8.34556 51.0668 5.40454 44.65 4.60245 42.5111Z" fill="#F53C42"/>
</g>
<g style="mix-blend-mode:multiply">
<g style="mix-blend-mode:multiply">
<path d="M24.5747 54.7589L23.7619 54.7856C24.6656 46.8796 22.3636 45.0241 22.3395 45.0054C22.2541 44.9379 22.1973 44.8407 22.1804 44.7331C22.1635 44.6256 22.1879 44.5156 22.2486 44.4252C22.2773 44.3815 22.3146 44.3441 22.3581 44.3151C22.4016 44.286 22.4505 44.2661 22.5019 44.2563C22.5533 44.2466 22.6061 44.2473 22.6572 44.2584C22.7083 44.2695 22.7566 44.2908 22.7994 44.3209C22.9117 44.4012 25.5051 46.3636 24.5747 54.7589Z" fill="#F53C42"/>
</g>
</g>
<g style="mix-blend-mode:multiply">
<g style="mix-blend-mode:multiply">
<path d="M30.9778 54.5344L30.1597 54.5638C28.7292 48.5748 29.9832 45.5937 30.0367 45.4681C30.0569 45.4186 30.0869 45.3738 30.125 45.3363C30.163 45.2988 30.2083 45.2694 30.258 45.2499C30.3078 45.2304 30.361 45.2212 30.4144 45.2228C30.4678 45.2245 30.5203 45.237 30.5687 45.2595C30.6666 45.3079 30.742 45.3921 30.7793 45.4947C30.8167 45.5973 30.8131 45.7103 30.7693 45.8103C30.7506 45.8531 29.5634 48.754 30.9778 54.5344Z" fill="#F53C42"/>
</g>
</g>
<g style="mix-blend-mode:multiply">
<path d="M43.6381 35.8268C43.6381 35.8268 41.2318 43.3131 31.6066 45.9867L26.5547 47.4725C25.9782 47.642 25.3685 47.6649 24.7809 47.5391C24.1933 47.4132 23.6464 47.1426 23.1899 46.7518L20.1099 44.1152C20.1099 44.1152 12.7573 41.0405 11.9974 40.5057C11.6393 40.2537 8.34581 36.0942 8.34581 36.0942" stroke="#F53C42" stroke-miterlimit="10"/>
</g>
<path d="M32.6762 25.028C32.449 30.8218 26.8877 32.057 25.2461 32.295C24.9429 32.3395 24.6347 32.3386 24.3317 32.2923C18.9363 31.4715 16.9016 25.29 16.9016 25.29C14.4953 25.8114 13.4259 21.1031 13.4259 21.1031C13.1585 17.9642 15.2974 19.2743 15.2974 19.2743C14.859 15.713 17.7171 14.2077 20.4068 13.574C21.7548 13.2721 23.1321 13.1206 24.5135 13.1222C24.7542 13.1222 24.9948 13.1168 25.2354 13.1088C33.4195 12.8816 33.9649 16.9482 33.735 18.9615C33.7163 19.1406 33.6922 19.3037 33.6628 19.4454C33.688 19.3767 33.7174 19.3098 33.751 19.2449C34.3366 18.1166 35.6172 18.4882 35.6172 18.4882C38.8256 21.1031 32.6762 25.028 32.6762 25.028Z" fill="#FFA787"/>
<path d="M33.7346 18.9615C33.3228 14.598 24.9222 13.1008 20.4064 13.574C21.7544 13.2721 23.1317 13.1206 24.5131 13.1222C24.7538 13.1222 24.9944 13.1168 25.235 13.1088C33.4191 12.8816 33.9645 16.9482 33.7346 18.9615Z" fill="#FF8D69"/>
<g style="mix-blend-mode:multiply">
<path d="M34.7506 19.4132C34.7506 19.4132 37.7562 20.0522 33.4784 23.7953C33.4784 23.7953 35.2206 20.6458 34.7506 19.4132Z" fill="#FFA787"/>
</g>
<g style="mix-blend-mode:multiply">
<path d="M15.2541 19.785C15.2541 19.785 12.2484 20.4868 16.5262 24.5976C16.5262 24.5976 14.784 21.1386 15.2541 19.785Z" fill="#FFA787"/>
</g>
<g style="mix-blend-mode:multiply">
<path d="M24.4001 22.1078C24.1305 22.6015 23.9475 23.1377 23.8589 23.6932C23.8554 23.811 23.8938 23.9262 23.9671 24.0184C24.0405 24.1106 24.1441 24.1738 24.2596 24.197C24.69 24.301 25.133 24.3426 25.5752 24.3205C25.6541 24.3106 25.7296 24.2824 25.7957 24.2381C25.8618 24.1939 25.9165 24.1347 25.9557 24.0655C25.9948 23.9962 26.0171 23.9188 26.0209 23.8393C26.0247 23.7599 26.0099 23.6807 25.9776 23.608L25.3294 22.1232C25.2901 22.0336 25.2259 21.957 25.1444 21.9028C25.0629 21.8485 24.9676 21.8188 24.8697 21.8172C24.7718 21.8156 24.6755 21.8421 24.5922 21.8936C24.509 21.9451 24.4423 22.0195 24.4001 22.1078Z" fill="#FF8D69"/>
</g>
<path d="M27.6862 16.3189L28.0197 17.5588C28.0197 17.5588 31.8277 16.3943 32.8986 17.5204C32.8986 17.5204 30.2879 15.319 27.6862 16.3189Z" fill="#5E1212"/>
<path d="M21.8597 16.4869L21.5739 17.7387C21.5739 17.7387 17.7242 16.7206 16.6972 17.8869C16.6971 17.8869 19.2218 15.5872 21.8597 16.4869Z" fill="#5E1212"/>
<path d="M19.6672 24.3579C19.0049 24.3579 18.3574 24.1615 17.8067 23.7936C17.256 23.4256 16.8267 22.9026 16.5733 22.2907C16.3198 21.6788 16.2535 21.0054 16.3827 20.3558C16.5119 19.7062 16.8308 19.1095 17.2992 18.6411C17.7675 18.1728 18.3642 17.8538 19.0139 17.7246C19.6635 17.5954 20.3368 17.6617 20.9487 17.9152C21.5606 18.1687 22.0837 18.5979 22.4516 19.1486C22.8196 19.6994 23.016 20.3468 23.016 21.0092C23.015 21.897 22.6618 22.7482 22.0341 23.376C21.4063 24.0038 20.5551 24.3569 19.6672 24.3579ZM19.6672 18.0114C19.0744 18.0114 18.4948 18.1872 18.0018 18.5165C17.5088 18.8459 17.1246 19.3141 16.8977 19.8618C16.6708 20.4096 16.6114 21.0123 16.7271 21.5938C16.8427 22.1753 17.1282 22.7095 17.5474 23.1287C17.9667 23.5479 18.5008 23.8335 19.0823 23.9491C19.6638 24.0648 20.2665 24.0055 20.8143 23.7786C21.362 23.5517 21.8302 23.1675 22.1596 22.6746C22.489 22.1816 22.6648 21.6021 22.6649 21.0092C22.6639 20.2144 22.3478 19.4525 21.7859 18.8905C21.2239 18.3285 20.462 18.0124 19.6672 18.0114Z" fill="white"/>
<path d="M30.1884 24.0626C29.5261 24.0626 28.8786 23.8663 28.3279 23.4983C27.7772 23.1303 27.3479 22.6073 27.0944 21.9954C26.841 21.3835 26.7746 20.7102 26.9038 20.0606C27.033 19.411 27.352 18.8142 27.8203 18.3459C28.2886 17.8775 28.8853 17.5586 29.5349 17.4293C30.1845 17.3001 30.8579 17.3664 31.4698 17.6199C32.0817 17.8733 32.6047 18.3025 32.9727 18.8532C33.3407 19.4039 33.5371 20.0514 33.5371 20.7137C33.5362 21.6016 33.1831 22.4528 32.5553 23.0806C31.9275 23.7085 31.0763 24.0616 30.1884 24.0626ZM30.1884 17.7161C29.5955 17.7161 29.0159 17.8919 28.523 18.2213C28.03 18.5507 27.6457 19.0188 27.4189 19.5666C27.192 20.1144 27.1326 20.7171 27.2482 21.2986C27.3639 21.8801 27.6494 22.4142 28.0686 22.8335C28.4879 23.2527 29.022 23.5382 29.6035 23.6539C30.185 23.7695 30.7878 23.7102 31.3355 23.4833C31.8833 23.2564 32.3515 22.8722 32.6808 22.3792C33.0102 21.8862 33.186 21.3066 33.186 20.7137C33.1851 19.919 32.869 19.157 32.307 18.5951C31.7451 18.0331 30.9831 17.717 30.1884 17.7161V17.7161Z" fill="white"/>
<path d="M27.0612 20.299H22.7834V20.9293H27.0612V20.299Z" fill="white"/>
</g>
<defs>
<linearGradient id="paint0_linear_1_306" x1="25.6865" y1="20.1347" x2="26.3787" y2="49.8994" gradientUnits="userSpaceOnUse">
<stop stop-color="#D62B37"/>
<stop offset="0.03181" stop-color="#D82C38" stop-opacity="0.96274"/>
<stop offset="0.19674" stop-color="#E3323B" stop-opacity="0.79582"/>
<stop offset="0.37001" stop-color="#EB363E" stop-opacity="0.66528"/>
<stop offset="0.55323" stop-color="#F13A40" stop-opacity="0.57255"/>
<stop offset="0.75294" stop-color="#F43B42" stop-opacity="0.51755"/>
<stop offset="1" stop-color="#F53C42" stop-opacity="0.5"/>
</linearGradient>
</defs>
</svg>
