<svg width="51" height="51" viewBox="0 0 51 51" fill="none" xmlns="http://www.w3.org/2000/svg">
<circle cx="25.2067" cy="25.2067" r="25.2067" fill="#C16BC6"/>
<mask id="mask0_1_342" style="mask-type:alpha" maskUnits="userSpaceOnUse" x="0" y="0" width="51" height="51">
<path d="M25.2067 50.4134C39.128 50.4134 50.4134 39.128 50.4134 25.2067C50.4134 11.2854 39.128 0 25.2067 0C11.2854 0 0 11.2854 0 25.2067C0 39.128 11.2854 50.4134 25.2067 50.4134Z" fill="#FFBA55"/>
</mask>
<g mask="url(#mask0_1_342)">
<path d="M17.3984 30.8545L14.9508 43.872L4.20247 47.8131V50.4872H46.36L31.1928 43.5137L33.7008 39.5129L26.5999 25.8608L22.5929 21.4123C22.5929 21.4123 19.489 20.2256 19.2502 20.2256C19.0113 20.2256 15.9062 23.5695 15.9062 23.5695L17.3984 30.8545Z" fill="#FFA787"/>
<g style="mix-blend-mode:multiply" opacity="0.4">
<path d="M15.9062 29.3016L26.8933 40.1694L31.1928 43.5134L32.6236 40.8453L20.7318 24.2679L15.9062 29.3016Z" fill="#FFA787"/>
</g>
<path d="M42.7568 30.8543C42.1445 31.1759 41.499 31.4298 40.8316 31.6115C40.674 31.6222 40.5068 31.6282 40.3288 31.6306C40.3288 31.6306 41.344 32.4069 40.09 34.4968L39.4929 35.93L33.1633 39.5127L28.8639 34.1386L25.52 28.7154L25.1617 21.5988V17.1752L25.8782 15.3886L27.3113 13.0001C27.3113 13.0001 30.0582 10.3727 30.297 10.3727C30.5359 10.3727 35.6712 11.6864 35.6712 11.6864L38.418 13.3584L38.8957 14.4332C38.9757 14.6721 40.4327 18.8317 41.3965 21.5833C41.9387 23.1298 41.7524 24.2119 41.1051 25.719L40.6274 26.4356C40.6274 26.4356 41.0693 26.9885 41.203 27.1211C42.0916 28.2258 43.6131 30.3324 42.7568 30.8543Z" fill="#FFA787"/>
<path d="M22.7135 22.1361C22.7135 22.1361 24.9826 23.6886 23.7884 29.8988C23.7884 29.8988 21.9788 35.1215 26.8246 36.9887L32.6239 40.8453C32.7945 40.959 32.9777 41.0527 33.1697 41.1246C34.3919 41.5816 38.8851 43.0565 39.1944 40.1695C39.1944 40.1695 38.5972 36.5928 39.5527 35.8701L37.8807 35.6313C37.8807 35.6313 37.4969 38.1258 35.6115 36.9232C35.4008 36.788 35.2232 36.6073 35.0917 36.3943C34.9602 36.1814 34.8781 35.9416 34.8515 35.6927C34.7145 34.4393 34.1464 31.7851 31.7899 31.3319C30.9568 31.0608 30.1563 30.6983 29.403 30.2509C28.2782 29.5725 27.413 28.5371 26.9453 27.3097C26.4776 26.0823 26.4343 24.7336 26.8223 23.4788L27.8489 20.1058C27.8489 20.1058 25.6992 18.8942 25.52 18.8432C25.3409 18.7921 22.3552 19.9864 22.3552 19.9864L22.7135 22.1361Z" fill="#5E1212"/>
<path d="M31.9068 13.4617C33.436 13.4502 35.9944 13.6754 37.8805 15.09C37.8805 15.09 40.5269 16.6938 40.8911 14.4473C40.9759 13.8815 40.8912 13.3034 40.6478 12.7857C40.4043 12.268 40.0131 11.8339 39.5233 11.5383C36.0214 9.38223 25.7398 4.09442 18.414 11.0295C18.414 11.0295 13.2236 15.0447 13.2187 19.1731C13.2212 20.2697 13.1338 21.3647 12.9573 22.4471C12.4586 25.4384 12.2905 30.7684 17.3983 30.8543C17.3983 30.8543 18.9514 22.9124 23.7285 22.4347C24.6989 22.1422 25.6536 21.7997 26.5887 21.4085C27.4785 21.0313 28.2258 20.3815 28.7227 19.5525C29.2197 18.7236 29.4408 17.7583 29.3543 16.7957C29.3307 16.5392 29.3203 16.2816 29.3232 16.024C29.3333 15.3439 29.6094 14.6949 30.0924 14.2159C30.5753 13.7369 31.2267 13.4662 31.9068 13.4617Z" fill="#5E1212"/>
<path d="M19.6084 11.7462C19.2502 11.7462 23.4301 6.96912 20.2056 6.37197C20.2056 6.37197 15.0875 2.55033 12.6904 6.37197C12.6904 6.37197 7.78522 10.5519 10.1737 12.3433C10.1737 12.3433 11.3444 16.4694 15.4764 14.1078L17.817 16.0455L19.9667 13.1793L19.6084 11.7462Z" fill="#5E1212"/>
<g style="mix-blend-mode:multiply">
<path d="M42.7568 30.8542C42.1445 31.1758 41.499 31.4297 40.8317 31.6113C40.6677 31.6561 40.4957 31.6626 40.3289 31.6305C40.2146 31.6161 40.1048 31.5769 40.0073 31.5156C39.9097 31.4544 39.8267 31.3725 39.7642 31.2758C39.7016 31.1791 39.6609 31.0699 39.645 30.9558C39.6291 30.8417 39.6383 30.7255 39.672 30.6153C39.672 30.4959 40.6274 26.4354 40.6274 26.4354C40.6274 26.4354 40.7779 26.6038 41.0024 26.8749C41.0633 26.9489 41.1314 27.0314 41.2031 27.1209C42.0916 28.2256 43.6131 30.3323 42.7568 30.8542Z" fill="#FF8D69"/>
</g>
<path d="M25.4601 24.2264C25.4601 26.4359 25.495 29.8991 23.5493 29.8991C21.6035 29.8991 18.4139 26.4359 18.4139 24.2264C18.4139 22.0168 19.9913 20.2256 21.937 20.2256C23.8828 20.2256 25.4601 22.0168 25.4601 24.2264Z" fill="#FFA787"/>
<g style="mix-blend-mode:multiply">
<path d="M21.7902 21.9924C20.4158 22.3843 18.4208 23.387 20.9828 26.2077C21.1094 26.3467 21.2453 26.4771 21.3895 26.5977L23.1911 28.1074C23.5666 27.3563 23.7787 26.5342 23.8135 25.6952C23.8482 24.8562 23.7048 24.0194 23.3926 23.2398L23.1631 22.6666C23.0582 22.4043 22.8598 22.1901 22.6062 22.0656C22.3526 21.9411 22.0619 21.915 21.7902 21.9924Z" fill="#FF8D69"/>
</g>
<path d="M4.20193 50.4868V47.8129L14.3532 42.9162L31.1926 43.5134L46.3595 50.4868H4.20193Z" fill="#27848B"/>
<path d="M31.1928 43.5134L14.6912 38.4433C14.3705 38.3441 14.0327 38.3122 13.6991 38.3497C13.3655 38.3871 13.0432 38.4931 12.7525 38.6609C12.4617 38.8288 12.2088 39.0549 12.0095 39.3251C11.8103 39.5953 11.669 39.9037 11.5945 40.231C11.4173 41.0104 11.4271 41.8205 11.6232 42.5953C11.8192 43.3701 12.1959 44.0875 12.7224 44.6888C12.7224 44.6888 27.3712 46.9768 31.1928 43.5134Z" fill="#27848B"/>
<g style="mix-blend-mode:multiply" opacity="0.5">
<path d="M31.1928 43.5134L14.6912 38.4433C14.3705 38.3441 14.0327 38.3122 13.6991 38.3497C13.3655 38.3871 13.0432 38.4931 12.7525 38.6609C12.4617 38.8288 12.2088 39.0549 12.0095 39.3251C11.8103 39.5953 11.669 39.9037 11.5945 40.231C11.4173 41.0104 11.4271 41.8205 11.6232 42.5953C11.8192 43.3701 12.1959 44.0875 12.7224 44.6888C12.7224 44.6888 27.3712 46.9768 31.1928 43.5134Z" fill="#27848B"/>
</g>
<path d="M14.0673 33.5164C14.0271 33.5164 13.9881 33.5029 13.9565 33.4782C13.925 33.4534 13.9026 33.4187 13.8931 33.3797C13.8836 33.3407 13.8874 33.2996 13.904 33.2631C13.9207 33.2265 13.9491 33.1966 13.9847 33.1781L14.8382 32.736C15.3382 32.509 15.8007 32.2071 16.2098 31.8408C16.5466 31.4961 16.7829 31.0659 16.893 30.5967C17.0031 30.1275 16.983 29.6372 16.8347 29.1786C16.8195 29.1336 16.8229 29.0844 16.844 29.0418C16.8651 28.9992 16.9023 28.9668 16.9473 28.9516C16.9924 28.9364 17.0416 28.9398 17.0841 28.9609C17.1267 28.982 17.1591 29.0192 17.1743 29.0642C17.3431 29.5862 17.366 30.1443 17.2406 30.6784C17.1152 31.2124 16.8463 31.702 16.4629 32.0944C16.0287 32.4877 15.5362 32.8115 15.003 33.0542L14.1496 33.4963C14.1242 33.5095 14.0959 33.5164 14.0673 33.5164Z" fill="#5E1212"/>
<path d="M13.9134 31.4835C13.8163 31.4836 13.7195 31.4737 13.6244 31.454C13.5709 31.4482 13.5201 31.4276 13.4776 31.3946C13.435 31.3616 13.4025 31.3175 13.3836 31.2671C13.367 31.2125 13.3709 31.1538 13.3946 31.1019C13.4182 31.05 13.46 31.0085 13.512 30.9852C13.5589 30.9624 13.6126 30.9581 13.6625 30.9732C13.7125 30.9882 13.7549 31.0215 13.7814 31.0664C13.7912 31.0828 13.7984 31.1007 13.8025 31.1194C14.0534 31.1404 14.3046 31.0825 14.521 30.9537C14.7374 30.825 14.9081 30.6318 15.0093 30.4012C15.0416 30.3209 15.0686 30.2324 15.0972 30.1386C15.1203 29.9743 15.1808 29.8176 15.2741 29.6804C15.3673 29.5432 15.4908 29.4293 15.6351 29.3474C15.6568 29.3384 15.6801 29.3339 15.7037 29.3339C15.7272 29.334 15.7505 29.3387 15.7722 29.3477C15.7939 29.3568 15.8136 29.3701 15.8302 29.3867C15.8468 29.4034 15.8599 29.4232 15.8689 29.4449C15.8778 29.4667 15.8824 29.49 15.8823 29.5135C15.8823 29.5371 15.8776 29.5603 15.8685 29.582C15.8594 29.6038 15.8462 29.6235 15.8295 29.6401C15.8128 29.6566 15.7931 29.6698 15.7713 29.6787C15.589 29.7537 15.5166 29.9914 15.4398 30.2431C15.4103 30.34 15.3798 30.4402 15.3416 30.535C15.222 30.8151 15.023 31.0541 14.7693 31.2227C14.5155 31.3912 14.218 31.4819 13.9134 31.4835Z" fill="#5E1212"/>
<path d="M13.0486 12.6828C13.0336 12.6828 13.0185 12.6809 13.0039 12.6771C12.4377 12.5301 11.9308 12.2114 11.5529 11.7648C11.3793 11.5802 11.2493 11.3591 11.1725 11.1176C11.0956 10.8762 11.0739 10.6206 11.1089 10.3696C11.2475 9.91638 11.5183 9.51488 11.8867 9.21659C12.2284 8.8765 12.5511 8.5553 12.5508 8.14373C12.5508 8.09623 12.5697 8.05066 12.6033 8.01705C12.6368 7.98343 12.6824 7.96452 12.7299 7.96448H12.73C12.7775 7.96446 12.823 7.98332 12.8566 8.01689C12.8902 8.05046 12.9091 8.096 12.9091 8.1435C12.9094 8.70413 12.518 9.09372 12.1394 9.47054C11.8242 9.72181 11.5883 10.0587 11.4599 10.4408C11.4363 10.6388 11.4569 10.8396 11.5204 11.0287C11.5839 11.2178 11.6886 11.3904 11.8269 11.5341C12.1567 11.9237 12.599 12.2018 13.0931 12.3301C13.1353 12.3409 13.1722 12.3668 13.1967 12.4029C13.2212 12.439 13.2317 12.4828 13.2263 12.526C13.2208 12.5693 13.1998 12.6091 13.1671 12.638C13.1344 12.6668 13.0922 12.6828 13.0486 12.6828V12.6828Z" fill="#C47076"/>
<path d="M37.0405 38.4654C37.0329 38.4654 37.0252 38.4649 37.0177 38.4639C35.6237 38.2866 34.2998 38.0496 33.4216 37.1095C32.9213 36.4951 32.5567 35.7818 32.3515 35.0165C32.2077 34.5608 32.0279 34.1172 31.8137 33.69C31.4847 33.0802 31.011 32.5606 30.4343 32.1765C30.3215 32.0756 30.1857 32.0037 30.0387 31.9674C29.8918 31.931 29.7382 31.9312 29.5913 31.968C29.5476 31.9865 29.4983 31.987 29.4542 31.9692C29.4102 31.9514 29.375 31.9169 29.3564 31.8732C29.3378 31.8295 29.3373 31.7802 29.355 31.7362C29.3727 31.6921 29.4072 31.6569 29.4509 31.6382C29.652 31.5748 29.866 31.5636 30.0727 31.6055C30.2794 31.6475 30.4721 31.7413 30.6325 31.8782C31.2582 32.2948 31.7721 32.8585 32.1291 33.52C32.3528 33.9641 32.5405 34.4254 32.6902 34.8996C32.8793 35.6173 33.2177 36.287 33.6833 36.8649C34.4801 37.7177 35.7365 37.9398 37.0629 38.1085C37.1081 38.1143 37.1494 38.137 37.1784 38.1721C37.2074 38.2072 37.222 38.252 37.2191 38.2974C37.2162 38.3429 37.1962 38.3855 37.163 38.4167C37.1298 38.4479 37.086 38.4653 37.0405 38.4653V38.4654Z" fill="#C47076"/>
<path d="M35.2687 40.1593H35.2686C34.1593 40.1559 33.0781 39.8101 32.1727 39.1693C31.765 38.8641 31.379 38.5308 31.0175 38.172C30.4495 37.5375 29.743 37.0423 28.9529 36.7246C28.9076 36.7104 28.8698 36.6788 28.8478 36.6368C28.8258 36.5947 28.8213 36.5457 28.8354 36.5004C28.8496 36.4551 28.8811 36.4172 28.9231 36.3951C28.9651 36.373 29.0141 36.3685 29.0595 36.3825C29.9021 36.7162 30.6564 37.2395 31.2639 37.912C31.6135 38.2591 31.9866 38.5816 32.3805 38.8774C33.2252 39.4753 34.2339 39.7978 35.2688 39.801C35.3159 39.8016 35.3609 39.8207 35.3941 39.8543C35.4272 39.8878 35.4457 39.9331 35.4457 39.9802C35.4457 40.0273 35.4271 40.0726 35.394 40.1061C35.3608 40.1396 35.3158 40.1587 35.2687 40.1593V40.1593Z" fill="#C47076"/>
</g>
</svg>
