<svg width="51" height="51" viewBox="0 0 51 51" fill="none" xmlns="http://www.w3.org/2000/svg">
<circle cx="25.2067" cy="25.2067" r="25.2067" fill="#C16BC6"/>
<mask id="mask0_1_252" style="mask-type:alpha" maskUnits="userSpaceOnUse" x="0" y="0" width="51" height="51">
<path d="M25.2067 50.4134C39.128 50.4134 50.4134 39.128 50.4134 25.2067C50.4134 11.2854 39.128 0 25.2067 0C11.2854 0 0 11.2854 0 25.2067C0 39.128 11.2854 50.4134 25.2067 50.4134Z" fill="#FFBA55"/>
</mask>
<g mask="url(#mask0_1_252)">
<path d="M20.8247 33.4147C20.1848 34.1212 19.3699 34.6464 18.4622 34.9373C17.8667 35.1516 17.2501 35.302 16.6228 35.386L16.5556 35.4304L15.9665 35.8276L13.3209 37.6057L13.1841 37.6969L11.6975 38.6964C9.51622 39.9082 6.7302 43.7849 6.7302 43.7849C7.52569 43.3697 13.3221 42.5994 14.9743 42.3871C15.1998 42.3583 15.3774 42.3403 15.4362 42.3355L15.4422 42.3343C15.447 42.3336 15.4518 42.3332 15.4566 42.3331C15.4566 42.3331 15.2238 42.9354 15.1638 43.173C14.7677 45.1639 14.4746 47.1739 14.2856 49.1949L12.9885 50.8099C7.82085 51.0523 -1.95061 48.7918 -1.95061 48.7918C-2.48949 48.611 -2.96913 48.2872 -3.33823 47.855C-3.70734 47.4227 -3.95204 46.8983 -4.04619 46.3378C-4.14033 45.7772 -4.08037 45.2016 -3.87273 44.6725C-3.66508 44.1434 -3.31755 43.6806 -2.86729 43.3338L10.6669 32.81L11.9723 31.459C12.295 29.9244 14.0048 27.5991 14.0048 27.5991C14.1529 26.6508 14.6523 25.7929 15.4038 25.1958L15.405 25.1946C15.6484 24.9817 15.9079 24.7879 16.1813 24.6151C17.3439 23.8748 18.7082 23.5041 19.578 23.6936C20.8223 23.966 20.3375 26.1797 20.3375 26.1797L20.4083 27.2308L20.4383 27.6687L20.4419 27.7311L20.8247 33.4147Z" fill="#FFA787"/>
<g style="mix-blend-mode:multiply" opacity="0.4">
<g style="mix-blend-mode:multiply" opacity="0.4">
<path d="M20.825 33.4147C20.1851 34.1212 19.3702 34.6464 18.4625 34.9373C18.4397 34.9241 18.4169 34.9109 18.3941 34.8965C18.3213 34.8592 18.2612 34.8012 18.2213 34.7297C18.1897 34.6372 18.1893 34.5369 18.2201 34.4441C18.4385 33.4519 18.9017 32.4488 18.6605 31.4626C18.5323 31.0346 18.3371 30.6296 18.0822 30.2627C17.5301 29.4498 17.0499 28.5902 16.6472 27.6939C16.2434 26.7898 16.1331 25.7819 16.3316 24.8119L15.4485 25.5498C15.5397 25.521 15.5025 25.719 15.4113 25.6902C15.3201 25.6613 15.3058 25.5378 15.3225 25.4442C15.3373 25.3578 15.3648 25.2741 15.4041 25.1958L15.4053 25.1946C15.4825 25.0456 15.5924 24.916 15.7269 24.8157C15.8613 24.7153 16.0168 24.6467 16.1816 24.6151C16.337 24.583 16.498 24.5909 16.6496 24.6379C17.4151 24.8815 17.6322 25.8677 18.2346 26.4005C18.6742 26.6991 19.1474 26.9451 19.6444 27.1336C19.9377 27.2933 20.2064 27.4945 20.4422 27.7311L20.825 33.4147Z" fill="#FFA787"/>
</g>
</g>
<path d="M36.9855 18.2271C36.8319 18.5834 36.6796 19.7568 36.3736 20.4707C36.0935 21.0731 35.8876 21.7073 35.7605 22.3593C35.6081 23.1236 34.7406 24.3474 34.5366 24.9089C34.3327 25.4705 33.5168 26.1328 33.1592 26.4903C32.8029 26.8479 30.9251 27.2666 30.9251 27.2666L30.6636 28.1365C30.1232 29.9315 29.0192 31.5047 27.5149 32.6233C26.0106 33.7418 24.1861 34.3462 22.3115 34.3468C22.0828 34.3467 21.8569 34.2954 21.6504 34.1969C21.4434 34.0989 21.2613 33.9553 21.1177 33.7769C20.513 33.0282 19.4739 31.736 19.0312 31.1337C18.9577 31.0391 18.89 30.9401 18.8284 30.8373C18.8212 30.8217 18.8176 30.8109 18.82 30.8073C18.8764 30.7245 15.6633 25.3685 15.6633 25.2149C15.6509 25.1435 15.634 25.073 15.6129 25.0037C15.5769 24.8718 15.5241 24.6846 15.4593 24.4614C15.0765 23.1368 14.2858 20.5236 14.2858 20.3688C14.2858 20.1648 14.5918 16.2377 14.8978 16.1862C15.2037 16.1358 18.5189 14.8088 18.3665 14.6564C18.2129 14.5028 19.1824 12.9214 19.1824 12.9214L19.6419 11.6976L22.0896 10.9837C22.0896 10.9837 25.1504 11.2381 25.3543 10.9837C25.5583 10.7281 28.7727 10.3706 28.7727 10.3706C28.7727 10.3706 30.8844 11.1877 30.9252 11.85C30.966 12.5135 32.3434 13.6353 32.7009 14.1969C33.0573 14.7584 35.9657 16.3902 35.9657 16.3902L36.424 16.7981C36.424 16.7981 37.1379 17.8695 36.9855 18.2271Z" fill="#FFA787"/>
<g style="mix-blend-mode:multiply" opacity="0.4">
<g style="mix-blend-mode:multiply" opacity="0.4">
<path d="M14.4788 20.9071C14.5173 20.308 14.7412 19.7357 15.1197 19.2696C15.4981 18.8035 16.0123 18.4668 16.5908 18.3062C17.9743 17.9341 19.5467 18.5749 20.8488 17.9889C22.4648 17.2616 22.7504 15.1104 24.0748 13.9565C24.199 13.8304 24.3607 13.7478 24.5357 13.7212C24.8214 13.7014 25.0509 13.9309 25.2489 14.1311C25.8206 14.7077 26.4834 15.1861 27.2107 15.5473C27.5036 15.6744 27.7841 15.8282 28.0489 16.0066C28.2723 16.1923 28.4789 16.3974 28.6662 16.6196C29.3516 17.3558 30.1679 17.9582 31.0734 18.3961C31.387 18.5818 31.7343 18.7033 32.0952 18.7536C32.4561 18.8039 32.8235 18.782 33.1758 18.6892C33.5519 18.5209 33.8652 18.2382 34.071 17.8813C34.2769 17.5245 34.3647 17.1117 34.322 16.7019C34.2092 15.8851 33.8413 15.1247 33.2707 14.5292C32.6516 13.8461 31.9781 13.2143 31.257 12.6399C29.54 11.1947 27.7362 9.70429 25.5306 9.16157C24.4199 8.92719 23.284 8.83457 22.1501 8.88595C21.6592 8.87109 21.1687 8.92583 20.6932 9.04854C20.0498 9.28095 19.4701 9.66119 19.0006 10.1586C17.7514 11.3578 16.7771 12.8135 16.1448 14.4255C15.874 15.1203 15.6222 15.9005 14.9672 16.2877C14.7342 16.4255 14.4646 16.5019 14.244 16.6576C13.6385 17.0851 13.5973 17.9289 13.6134 18.6539C13.6332 19.5506 13.7036 20.5579 14.4001 21.1498L14.4788 20.9071Z" fill="#FFA787"/>
</g>
</g>
<path d="M45.4331 52.1764C45.4331 52.1764 43.3226 51.1803 41.5947 51.3791L37.4387 48.4651C37.4387 48.4651 40.6137 44.6158 40.925 44.5483C41.2363 44.4808 43.602 46.73 43.6643 46.9128C43.7266 47.0955 45.4331 52.1764 45.4331 52.1764Z" fill="#27848B"/>
<path d="M45.4332 52.1764L45.432 52.1728C45.4153 52.1052 45.3932 52.039 45.366 51.9748C44.9584 51.2445 44.4228 50.5934 43.7847 50.0527C43.4127 49.7059 43.0528 49.4 42.7912 49.184C42.5464 48.9836 42.3892 48.8612 42.3892 48.8612L41.9597 49.6699L41.199 51.1025L39.5564 54.1945H12.4918C12.3722 52.6829 12.7936 51.178 13.6808 49.9483C13.8607 49.6833 14.0613 49.433 14.2807 49.1996L14.2855 49.1948C14.1473 47.3415 14.3773 45.4792 14.9622 43.7152C15.1218 43.1932 15.2874 42.7253 15.4362 42.3354C15.7217 41.5855 15.9461 41.1259 15.9461 41.1259H18.7537C21.211 40.5992 25.6456 38.6687 25.6456 38.6687L25.8759 38.5763L26.2707 38.4179L26.2983 38.4071L27.4393 37.95L28.4471 37.5468L33.7108 35.4411L34.18 35.2539L34.1992 35.2455C34.2184 35.2263 34.2375 35.2071 34.2567 35.1891C36.1321 33.3138 37.9114 32.9646 39.4364 33.3102C39.8425 33.4029 40.2366 33.5418 40.6111 33.7241C41.487 34.1643 42.2811 34.7511 42.9591 35.4591C43.1943 35.6979 43.4019 35.9306 43.5795 36.1418C43.8359 36.4428 44.0735 36.7594 44.291 37.0897C45.402 38.5187 45.4368 49.9927 45.4332 52.1764Z" fill="#D2F1F9"/>
<g style="mix-blend-mode:multiply">
<path d="M27.4398 37.9499L27.106 39.8018L17.8975 41.6538L15.9466 41.1258H18.7542C21.2114 40.5991 25.646 38.6686 25.646 38.6686L27.4398 37.9499Z" fill="#D2F1F9"/>
</g>
<path d="M34.2117 35.3102L33.8613 35.6509L29.7075 39.6848C28.7392 41.5481 20.0224 46.9126 20.0224 46.9126C19.5749 46.465 26.0564 41.0262 26.0564 41.0262C26.5339 39.4496 26.2304 36.876 25.952 35.2322C25.7948 34.3119 25.6461 33.6832 25.6461 33.6832C26.8419 33.1894 27.9128 32.4354 28.7807 31.4759C29.6487 30.5164 30.2919 29.3756 30.6638 28.1364L30.9253 27.2665C30.8017 29.1262 34.2117 35.3102 34.2117 35.3102Z" fill="#FFA787"/>
<path d="M42.8008 49.0665C42.7984 49.106 42.7948 49.1444 42.7912 49.184C42.7202 49.9229 42.5739 50.6526 42.3545 51.3617C42.0568 52.3336 41.6837 53.2807 41.2386 54.1946H30.4437C32.6514 49.2812 34.408 44.7123 34.462 44.5479C34.462 44.5479 34.6611 44.6187 34.9983 44.7459H35.0007C35.8418 45.0614 37.5347 45.7165 39.1293 46.4568C41.0623 47.3531 42.85 48.3754 42.8008 49.0665Z" fill="#FFA787"/>
<g style="mix-blend-mode:multiply" opacity="0.4">
<path d="M42.8009 49.0664C42.7985 49.106 42.7949 49.1444 42.7913 49.184C42.7203 49.9229 42.5739 50.6525 42.3545 51.3617C42.0568 52.3335 41.6837 53.2807 41.2387 54.1945H39.8997C40.5092 53.1758 41.0971 52.21 41.613 51.3905C41.6154 51.3857 41.619 51.3821 41.6214 51.3773C41.9384 50.8684 42.0587 50.2612 41.9598 49.6699C41.9042 49.3315 41.7794 49.0082 41.5932 48.7202C41.407 48.4322 41.1634 48.1857 40.8776 47.9961L38.797 46.8455L34.9984 44.7458H35.0008C35.8419 45.0614 37.5348 45.7165 39.1294 46.4568C41.0623 47.353 42.8501 48.3753 42.8009 49.0664Z" fill="#FFA787"/>
</g>
<path d="M37.8616 19.5589C37.654 20.0748 37.2977 20.5247 37.1369 21.0563C36.789 22.2069 37.3829 23.6131 36.6558 24.5694C36.0907 25.3121 34.5417 25.0037 34.0449 25.7932C33.1631 27.1958 30.0171 27.4814 30.9254 27.2666C31.2397 27.1922 36.6906 20.4947 33.463 18.9542C33.463 18.9542 33.0971 19.6705 31.776 19.3489C31.776 19.3489 25.8669 14.9119 24.8974 12.4223C24.8605 12.3179 24.7983 12.2243 24.7162 12.1499C24.7102 12.2303 24.7042 12.3107 24.6982 12.3899L23.5752 12.3443C22.7593 12.9323 22.0438 13.6482 21.4563 14.4644C20.8576 15.2995 20.5264 16.3085 19.8929 17.1172C19.2582 17.9259 18.1243 18.5114 17.2053 18.0495C17.0542 17.9536 16.8918 17.877 16.7217 17.8215C16.566 17.8051 16.4087 17.823 16.2606 17.874C16.1126 17.925 15.9776 18.0078 15.865 18.1167C15.4851 18.4247 15.1771 18.8121 14.9626 19.2517C14.748 19.6913 14.6322 20.1725 14.6232 20.6615C14.61 21.7474 15.1259 22.7612 15.6515 23.7115C16.0196 24.266 16.2534 24.8986 16.3342 25.5592C16.3582 26.2227 15.9539 26.9534 15.2975 27.0506C15.0974 27.0661 14.8963 27.0416 14.7057 26.9785C14.5152 26.9155 14.3391 26.8152 14.1877 26.6835C13.8503 26.4186 13.577 26.081 13.3881 25.6959C13.1993 25.3107 13.0998 24.8879 13.097 24.459C13.5578 25.2149 14.1613 26.0584 15.0455 26.092C15.143 26.1034 15.2413 26.0795 15.3227 26.0248C15.3713 25.9711 15.4073 25.9073 15.4281 25.838C15.4488 25.7687 15.4538 25.6956 15.4427 25.624C15.4917 24.6692 15.2371 23.7233 14.7156 22.922C14.4514 22.6146 14.1706 22.3218 13.8745 22.0449C13.2956 21.4227 12.8806 20.6663 12.6667 19.8438C12.4529 19.0213 12.4469 18.1585 12.6495 17.3332C12.7273 17.1154 12.7564 16.8832 12.7347 16.6529C12.6466 16.398 12.5083 16.1634 12.3279 15.963C12.0887 15.575 11.9658 15.1266 11.9737 14.6709C11.9816 14.2151 12.1199 13.7712 12.3723 13.3917C12.6319 13.018 12.964 12.7002 13.3488 12.4572C13.7336 12.2142 14.1633 12.0509 14.6124 11.9771C14.7336 11.9543 14.856 11.9363 14.9796 11.9207C14.9869 10.8547 15.3946 9.83031 16.1218 9.05072C16.4972 8.6608 16.97 8.37826 17.4913 8.23229C18.0125 8.08632 18.5632 8.08222 19.0866 8.22043C19.3942 7.75685 19.7756 7.3467 20.2156 7.0062C20.8574 6.50052 21.603 6.14308 22.3992 5.9595C23.1953 5.77592 24.0222 5.77075 24.8206 5.94435C25.5537 4.94008 26.9347 4.56933 28.1633 4.75771C29.3862 5.01215 30.5326 5.5492 31.5109 6.32591C31.5889 7.16099 32.5523 7.54374 33.3058 7.91209C34.1599 8.32978 34.9082 8.93569 35.4943 9.68424C35.5967 9.78975 35.6764 9.91505 35.7286 10.0525C35.7808 10.1899 35.8044 10.3365 35.7979 10.4833C35.7691 10.6549 35.6635 10.8097 35.6467 10.9825C35.5987 11.49 36.2442 11.724 36.6114 12.0779C37.1225 12.5686 37.1057 13.3821 36.9953 14.0816C36.8849 14.7811 36.7266 15.5394 37.0589 16.1658C37.2027 16.3969 37.3618 16.6182 37.5353 16.8281C37.8108 17.221 37.9848 17.6759 38.0417 18.1524C38.0987 18.6289 38.0368 19.1121 37.8616 19.5589Z" fill="#5E1212"/>
<path d="M47.5708 22.567C47.5631 22.8697 47.4945 23.1677 47.3692 23.4433C47.2439 23.7189 47.0643 23.9665 46.8413 24.1712C46.6143 24.372 46.3387 24.5099 46.0419 24.5711C45.7451 24.6324 45.4374 24.6149 45.1495 24.5204C45.0335 24.4868 44.9269 24.4266 44.8384 24.3445C44.7498 24.2624 44.6817 24.1608 44.6396 24.0476C44.5772 23.8161 44.7535 23.5221 44.9935 23.5425C45.0275 23.7455 45.1196 23.9343 45.2587 24.086C45.37 24.1779 45.5001 24.2441 45.6399 24.2801C45.7796 24.3161 45.9256 24.3209 46.0674 24.2942C46.2092 24.2676 46.3435 24.2101 46.4606 24.1258C46.5777 24.0415 46.6749 23.9325 46.7453 23.8064C46.867 23.5389 46.8982 23.2389 46.8341 22.9521C46.77 22.6652 46.6141 22.407 46.3901 22.2167C46.2115 22.0592 46.0011 21.942 45.7731 21.873C45.5452 21.8041 45.3051 21.785 45.0691 21.8171C44.108 21.9515 43.4625 22.8994 43.2117 23.8364C43.0222 24.5456 43.0606 25.4478 43.6869 25.8306C43.8079 25.8857 43.918 25.9621 44.012 26.0561C44.0717 26.1642 44.0925 26.2895 44.0711 26.411C44.0497 26.5326 43.9874 26.6432 43.8944 26.7244C43.7229 26.902 43.4913 27.0088 43.3053 27.172C43.0458 27.4343 42.8949 27.7849 42.8826 28.1537C42.8704 28.5225 42.9978 28.8824 43.2393 29.1613C43.4955 29.4277 43.8232 29.6143 44.183 29.6986C44.5428 29.7829 44.9193 29.7613 45.2671 29.6364C45.6116 29.5038 45.9266 29.3045 46.1939 29.0498C46.4611 28.795 46.6754 28.49 46.8244 28.1523C46.8569 28.7589 46.6769 29.3578 46.3153 29.846C45.9537 30.3341 45.4333 30.6809 44.8435 30.8267C46.2053 31.2202 46.9408 32.942 46.4201 34.2606C46.1261 34.9082 45.6257 35.4402 44.9972 35.7732C44.3687 36.1062 43.6476 36.2215 42.9466 36.1012C42.7843 36.0894 42.6267 36.0414 42.4855 35.9606C42.3443 35.8798 42.223 35.7684 42.1307 35.6344C42.6923 35.4625 43.2811 35.3966 43.8668 35.4401C44.4536 35.4137 45.1135 35.2193 45.357 34.6854C45.4457 34.425 45.454 34.144 45.3808 33.8789C45.3076 33.6137 45.1564 33.3768 44.9467 33.1988C44.5213 32.851 44.0496 32.5639 43.5453 32.3457C42.9732 32.0428 42.4388 31.6735 41.9531 31.2454C41.34 30.7055 40.7773 29.9976 40.7749 29.1793C40.7737 28.8506 40.8649 28.5266 40.8601 28.1991C40.8704 28.0347 40.8342 27.8708 40.7557 27.7261C40.6772 27.5814 40.5595 27.4617 40.4161 27.3808C39.7838 27.1156 39.2895 28.0215 38.6307 28.2122C39.4195 28.8839 40.0696 29.7032 40.5445 30.6239C40.7783 31.0858 40.9097 31.5926 40.9297 32.1098C40.9498 32.627 40.8581 33.1425 40.6609 33.6211C40.5444 33.8887 40.3746 34.1296 40.1616 34.3291C39.9487 34.5287 39.6972 34.6825 39.4227 34.7813C39.1453 34.8737 38.8467 34.8812 38.565 34.803C38.2833 34.7248 38.0313 34.5643 37.8413 34.3422C38.4044 34.2025 38.9137 33.8994 39.3051 33.4711C39.9554 32.756 40.1198 31.4494 39.3087 30.9215C38.7759 30.5735 38.0188 30.6875 37.5257 30.2844C37.2686 30.033 37.0802 29.7199 36.9786 29.3749C36.5827 28.3502 36.1863 27.3256 35.7896 26.3009C35.7324 27.3094 35.8131 28.321 36.0295 29.3077C35.7644 29.4217 35.4704 29.1613 35.3972 28.883C35.3599 28.597 35.3431 28.3087 35.3468 28.0203C35.2864 27.7319 35.1663 27.4594 34.9942 27.2203C34.822 26.9812 34.6017 26.7808 34.3473 26.6321C33.8614 26.2997 33.3131 26.0598 32.8584 25.6866C32.4156 25.323 32.0953 24.584 32.5404 24.2228C32.7064 24.1143 32.8931 24.0416 33.0887 24.0092C34.6749 23.5797 35.6168 21.9371 36.0547 20.3533C36.4855 18.8554 36.5877 17.2821 36.3543 15.741C36.121 14.1999 35.5575 12.7274 34.7025 11.4242C33.5135 9.7024 31.7101 8.2554 31.3334 6.20729C31.3274 6.17969 31.3226 6.1509 31.3178 6.1221L31.301 6.05131C31.2974 5.98891 31.2962 5.92533 31.2962 5.86293C31.2936 5.15829 31.5131 4.47074 31.9234 3.89786C32.3337 3.32497 32.9139 2.89585 33.5819 2.67137C33.771 2.58303 33.9797 2.54501 34.1878 2.56099C34.4243 2.61214 34.6424 2.72661 34.8189 2.89214C35.4469 3.39759 35.9989 3.99079 36.4579 4.6535C36.6599 5.0097 36.9327 5.32083 37.2594 5.56778C37.8353 5.92294 38.572 5.76695 39.2475 5.79095C40.9297 5.85094 42.5098 7.43352 42.2543 9.09769C42.1655 9.67961 41.8763 10.2555 42.0035 10.8315C42.1343 11.423 42.6622 11.8285 43.1529 12.1813C43.8405 12.6756 44.5272 13.1691 45.2131 13.6619C45.4406 13.8012 45.6345 13.9893 45.7806 14.2126C46.1717 14.9229 45.495 15.746 44.8291 16.2079C44.2858 16.5846 43.7081 16.9092 43.1038 17.1774C42.6619 17.3202 42.2638 17.5733 41.9471 17.9129C41.4768 18.5464 41.7731 19.5243 42.4103 19.9898C43.0874 20.4125 43.9036 20.5521 44.6827 20.3785C45.0059 20.3062 45.3355 20.2664 45.6666 20.2597C46.7741 20.3041 47.6175 21.4596 47.5708 22.567Z" fill="#5E1212"/>
<path d="M24.8467 13.0199C25.0441 12.6448 25.0996 12.211 25.003 11.7983C24.9064 11.3856 24.6641 11.0215 24.3207 10.773C23.5183 10.2237 22.544 9.98371 21.5783 10.0975C20.5428 10.1831 19.5332 10.4667 18.6045 10.9328C17.6904 11.3596 16.8302 11.8936 16.0421 12.5235C15.2747 13.1222 14.668 13.9022 14.2765 14.7933C13.9158 15.695 13.7404 16.66 13.7607 17.631C13.7637 18.1077 13.8204 18.5804 13.8398 19.0562C13.8864 19.5227 13.8122 19.9933 13.6245 20.4229C13.3833 20.7851 13.0774 21.0996 12.7221 21.3507C12.5543 21.4836 12.4163 21.6503 12.3168 21.8398C12.2174 22.0294 12.1588 22.2377 12.1449 22.4513C12.1243 23.4003 12.8701 24.2435 13.4714 24.9C14.1386 25.6282 14.8988 26.2652 15.7325 26.7947C15.937 26.9245 16.1456 27.0474 16.3582 27.1635C16.4653 27.2222 16.7564 27.0725 16.6109 26.9927C15.3675 26.3142 14.2669 25.4017 13.3698 24.3055C13.0581 23.9525 12.8033 23.5532 12.6145 23.1217C12.5186 22.9203 12.4701 22.6995 12.4728 22.4764C12.4755 22.2533 12.5292 22.0337 12.6298 21.8346C12.8759 21.5112 13.1686 21.2259 13.4982 20.9882C13.8075 20.7105 14.0207 20.3417 14.1069 19.935C14.1801 19.501 14.1916 19.0588 14.1413 18.6216C14.0452 17.6941 14.0854 16.7577 14.2607 15.8419C14.4509 14.9249 14.8743 14.0723 15.4901 13.3667C16.1338 12.6864 16.8777 12.1086 17.6961 11.6533C18.5498 11.1247 19.4775 10.7263 20.4486 10.471C21.3818 10.2154 22.3687 10.2321 23.2927 10.5194C24.1 10.8037 24.818 11.5102 24.7341 12.4269C24.7164 12.6298 24.6507 12.8256 24.5425 12.9982C24.5005 13.0654 24.5791 13.1074 24.6353 13.1131C24.6756 13.1171 24.7162 13.1107 24.7533 13.0943C24.7903 13.078 24.8225 13.0523 24.8467 13.0198L24.8467 13.0199Z" fill="#C47076"/>
<path d="M24.7062 13.6978C24.9356 13.1651 25.1939 12.2647 24.5914 11.8715C24.4039 11.7665 24.1946 11.7068 23.98 11.697C23.7375 11.6689 23.4947 11.6422 23.2513 11.6234C22.7566 11.5749 22.2577 11.5919 21.7674 11.6741C20.8985 11.8349 20.1266 12.3286 19.6162 13.05C19.3644 13.3683 19.22 13.7582 19.2035 14.1637C19.1871 14.5692 19.2995 14.9695 19.5247 15.3071C19.7864 15.6151 20.1505 15.8183 20.55 15.8794C20.9888 15.9057 21.4058 16.0797 21.7333 16.373C21.7946 16.4282 21.8414 16.4975 21.8699 16.5749C21.8983 16.6524 21.9073 16.7356 21.8963 16.8173C21.8852 16.899 21.8544 16.9768 21.8064 17.0439C21.7585 17.111 21.6949 17.1654 21.6211 17.2023C21.3064 17.2825 20.9781 17.2946 20.6583 17.238C20.301 17.2009 19.9399 17.23 19.5931 17.3238C19.2371 17.4312 18.905 17.6063 18.6152 17.8394C18.0285 18.3137 17.6113 18.9654 17.4261 19.6967C17.0157 21.3133 17.9337 22.9515 19.0917 24.0179C19.2473 24.1612 19.4093 24.2969 19.5777 24.4251C19.6889 24.5103 19.9723 24.3526 19.8268 24.2412C18.6054 23.3063 17.5621 21.8381 17.6634 20.2328C17.7484 18.8839 18.8561 17.3918 20.3205 17.4541C20.8657 17.4773 21.6866 17.6582 22.082 17.1544C22.1816 17.0222 22.232 16.8595 22.2248 16.6941C22.2175 16.5288 22.153 16.3711 22.0422 16.2481C21.7802 15.9621 21.4259 15.7775 21.0413 15.7267C20.6341 15.6937 20.2458 15.5408 19.9254 15.2872C19.6609 15.0097 19.5148 14.6402 19.518 14.2568C19.5512 13.8413 19.6885 13.4408 19.917 13.0923C20.1456 12.7437 20.4583 12.4582 20.8261 12.2622C21.6373 11.8549 22.5586 11.7217 23.4518 11.8824C23.8197 11.9194 24.3317 11.8928 24.5368 12.2653C24.658 12.5596 24.6675 12.8881 24.5635 13.1889C24.5213 13.3511 24.4661 13.5097 24.3985 13.6631C24.3264 13.8306 24.6505 13.8271 24.7062 13.6979L24.7062 13.6978Z" fill="#C47076"/>
<path d="M32.2031 19.936C32.2031 19.936 33.7233 16.8759 34.7982 20.6195C34.7982 20.6195 36.1521 23.9574 31.8058 26.2854L32.2031 19.936Z" fill="#FFA787"/>
<g style="mix-blend-mode:multiply">
<path d="M32.5391 20.361C32.5391 20.361 33.6295 19.0517 34.1213 20.5408C34.1213 20.5408 35.3165 23.3941 32.2821 25.2293L32.5391 20.361Z" fill="#FFA787"/>
</g>
<path d="M35.1088 10.0154C35.0803 10.0736 35.0352 10.122 34.9793 10.1546C34.733 10.3245 34.4382 10.4095 34.1394 10.397C33.7398 9.66387 33.2707 8.97037 32.8016 8.27806C32.4428 7.74774 32.0841 7.21741 31.7253 6.68708C31.6161 6.51094 31.4846 6.34963 31.3342 6.20715C31.3282 6.17955 31.3234 6.15076 31.3186 6.12196L31.3018 6.05117C31.2982 5.98878 31.297 5.92519 31.297 5.86279C31.4142 5.88913 31.5349 5.89683 31.6545 5.88559C32.1244 5.88961 32.5793 6.05193 32.9455 6.34633C33.3075 6.64013 33.6319 6.97743 33.9114 7.3506C34.0939 7.57047 34.2622 7.8017 34.4153 8.0429C34.7148 8.58721 34.9427 9.16794 35.0932 9.77067C35.1251 9.84834 35.1306 9.93433 35.1088 10.0154Z" fill="#FFBA55"/>
<path d="M35.7259 30.4383C34.1909 30.4025 33.4916 28.5889 33.3843 27.3151C33.3152 26.4941 33.4202 25.6818 33.4296 24.862C33.4381 24.1193 33.0575 23.876 32.4053 23.6604C32.0781 23.5543 31.7842 23.3646 31.5529 23.1099C31.3216 22.8553 31.1609 22.5447 31.0866 22.2088C30.995 21.5368 31.1566 20.8548 31.5398 20.2953C32.2405 19.0502 32.9927 17.8814 32.3116 16.4344C32.1159 16.0186 30.8664 16.4267 31.0315 16.7774C31.8327 18.4795 30.5329 19.608 29.9559 21.0941C29.8283 21.3938 29.7643 21.7168 29.7677 22.0425C29.7711 22.3682 29.842 22.6898 29.9758 22.9868C30.1096 23.2838 30.3034 23.5499 30.5451 23.7683C30.7868 23.9867 31.0711 24.1527 31.3801 24.2558C31.7949 24.3929 32.0896 24.4497 32.1457 24.9481C32.1604 25.4301 32.1412 25.9126 32.0882 26.3919C32.0265 27.2049 32.1044 28.0224 32.3186 28.809C32.4955 29.4514 32.8712 30.0213 33.3918 30.437C33.9125 30.8527 34.5514 31.093 35.217 31.1233C35.4653 31.1291 35.9382 31.0308 36.0642 30.7823C36.1942 30.526 35.9535 30.4437 35.7259 30.4383V30.4383Z" fill="#5E1212"/>
<path d="M29.6523 17.4446C30.0297 17.543 30.353 17.7865 30.5518 18.1222C30.7505 18.4578 30.8086 18.8584 30.7133 19.2367C30.5725 19.645 30.3082 19.9995 29.957 20.251C29.6201 20.5387 29.3527 20.8988 29.1747 21.3045C28.5009 22.9719 29.6921 24.5928 31.4068 24.77C31.5671 24.7886 31.7293 24.764 31.8769 24.6988C32.0244 24.6336 32.1519 24.5301 32.246 24.3991C32.3864 24.1192 32.1234 23.9664 31.8771 23.941C31.5051 23.8889 31.1575 23.7257 30.8798 23.4727C30.6022 23.2197 30.4074 22.8888 30.321 22.5232C30.2322 22.1471 30.2546 21.7533 30.3854 21.3897C30.5512 21.0091 30.8111 20.677 31.1407 20.4246C31.4748 20.168 31.7319 19.8244 31.8839 19.4314C32.0358 19.0385 32.0768 18.6113 32.0023 18.1967C31.9027 17.8206 31.7019 17.479 31.4218 17.2089C31.1417 16.9389 30.793 16.7508 30.4135 16.6649C30.2544 16.6262 30.0881 16.6282 29.93 16.6706C29.7718 16.7129 29.6268 16.7944 29.5084 16.9074C29.4619 16.9441 29.4273 16.9936 29.4086 17.0497C29.39 17.1059 29.3882 17.1663 29.4035 17.2234C29.4188 17.2806 29.4506 17.332 29.4948 17.3713C29.539 17.4106 29.5938 17.4361 29.6523 17.4446L29.6523 17.4446Z" fill="#5E1212"/>
<path d="M34.6431 2.95401C35.1308 2.50227 35.8487 2.62779 36.4093 2.87058C37.0029 3.14869 37.5278 3.55441 37.9464 4.05879C38.8603 5.1963 39.4526 6.55786 39.662 8.00186C39.83 8.91857 39.9096 9.84832 39.9887 10.776C39.9938 10.8362 40.3186 10.7777 40.3111 10.6896C40.1661 8.98894 40.0183 7.24004 39.32 5.66021C38.7632 4.40035 37.7872 3.09475 36.4259 2.65113C36.0817 2.51905 35.7089 2.47968 35.3448 2.53696C34.9807 2.59425 34.638 2.74618 34.351 2.97755C34.297 3.02755 34.3989 3.03277 34.4274 3.03126C34.5056 3.02895 34.5811 3.00191 34.6431 2.95402V2.95401Z" fill="#5E1212"/>
<path d="M41.3321 8.90831C41.2188 9.39646 41.2733 9.90855 41.4868 10.3619C41.7003 10.8153 42.0604 11.1835 42.5089 11.4071C42.9849 11.634 43.5289 11.641 44.0156 11.8364C44.2599 11.9243 44.4655 12.0955 44.5961 12.3199C44.7256 12.6019 44.7784 12.9132 44.7492 13.2222C44.7153 13.9425 44.4319 14.6287 43.9477 15.1631C43.8979 15.218 43.9912 15.2295 44.0273 15.2288C44.1063 15.229 44.1827 15.2004 44.2421 15.1484C44.6577 14.6914 44.9324 14.1241 45.0334 13.5147C45.1225 12.9657 45.1189 12.2776 44.6406 11.9029C44.1972 11.648 43.7069 11.4852 43.1991 11.4241C42.6839 11.2948 42.237 10.9746 41.9489 10.5283C41.7879 10.2847 41.6785 10.0107 41.6274 9.72319C41.5762 9.43569 41.5844 9.14078 41.6515 8.85657C41.6729 8.77246 41.355 8.81874 41.3321 8.90831Z" fill="#5E1212"/>
<path d="M42.1482 16.8829C41.0386 17.6487 40.8834 18.9778 41.0355 20.2234C41.1607 21.248 41.2847 22.6132 42.2684 23.2008C42.4033 23.2473 42.5462 23.2663 42.6885 23.2567C42.8309 23.2471 42.9699 23.2091 43.0973 23.1449C43.1664 23.1189 43.6797 22.8766 43.4712 22.7521C42.5869 22.2239 42.4757 21.0342 42.3461 20.1101C42.1988 19.0597 42.1452 17.639 43.1374 16.9543C43.343 16.8124 43.2919 16.6666 43.0533 16.6404C42.7333 16.621 42.4157 16.7062 42.1482 16.8829L42.1482 16.8829Z" fill="#5E1212"/>
<path d="M18.593 8.24785C18.8176 7.56094 19.2769 6.9751 19.8904 6.59315C20.5878 6.17072 21.3876 5.94742 22.203 5.94749C22.7146 5.93647 23.2264 5.96204 23.7344 6.02399C23.8119 6.02954 23.8894 6.01452 23.9592 5.98046C23.98 5.97076 24.0742 5.9138 24.0011 5.90562C22.2559 5.71037 20.224 5.80126 18.9422 7.17539C18.6366 7.49724 18.4088 7.88468 18.2759 8.3081C18.2604 8.35878 18.5693 8.32536 18.593 8.24785Z" fill="#5E1212"/>
<g style="mix-blend-mode:multiply">
<path d="M39.4347 35.4825C39.286 35.742 35.175 40.0323 34.4622 44.5483L39.4347 35.4825Z" fill="#D2F1F9"/>
</g>
<g style="mix-blend-mode:multiply">
<path d="M45.4334 52.1765C45.2894 51.5754 44.5155 50.7367 43.7848 50.0528V39.7859C43.788 39.0028 43.6251 38.2278 43.3068 37.5122C42.9886 36.7965 42.5224 36.1564 41.9388 35.6342C41.3551 35.1119 40.6675 34.7192 39.921 34.4821C39.1746 34.2449 38.3864 34.1687 37.6083 34.2584C36.4252 34.4143 35.277 34.7696 34.2125 35.3092L34.2569 35.1892C39.6742 29.7708 44.2912 37.0898 44.2912 37.0898C45.4022 38.5188 45.437 49.9928 45.4334 52.1765Z" fill="#D2F1F9"/>
</g>
<g style="mix-blend-mode:multiply" opacity="0.4">
<path d="M34.2113 35.3102L33.8609 35.651L30.3982 30.7808C29.6255 32.127 26.8755 34.4667 25.9516 35.2322C25.7944 34.3119 25.6456 33.6832 25.6456 33.6832C26.8415 33.1894 27.9124 32.4354 28.7803 31.4759C29.6483 30.5164 30.2915 29.3756 30.6634 28.1364L30.9249 27.2665C30.8013 29.1262 34.2113 35.3102 34.2113 35.3102Z" fill="#FFA787"/>
</g>
<g style="mix-blend-mode:multiply">
<path d="M20.94 25.7803C20.94 25.7803 20.5497 27.6672 20.2853 28.5839C20.0112 29.5343 21.1827 30.0884 21.6288 29.2161C21.7472 28.9725 21.8357 28.7154 21.8922 28.4505L20.94 25.7803Z" fill="#FF8D69"/>
</g>
<path d="M35.2491 25.2964C34.7908 25.6198 34.2689 25.8419 33.7181 25.948C33.7025 25.9516 33.6869 25.9552 33.6713 25.9576C33.5681 25.9768 33.4661 25.9912 33.3641 26.0007C32.388 26.1032 31.4082 25.8432 30.6114 25.27C29.8147 24.6969 29.2565 23.8507 29.0432 22.8926C28.8299 21.9346 28.9764 20.9315 29.4548 20.0745C29.9332 19.2175 30.7101 18.5663 31.6376 18.245C31.8291 18.1773 32.0257 18.1252 32.2255 18.0891C32.5443 18.0304 32.869 18.0106 33.1926 18.0302C33.1937 18.0297 33.1949 18.0294 33.1962 18.0294C33.1974 18.0294 33.1987 18.0297 33.1998 18.0302C34.0267 18.0827 34.8169 18.3906 35.4614 18.9114C36.1058 19.4322 36.5727 20.1402 36.7976 20.9376C37.0225 21.7351 36.9944 22.5827 36.717 23.3635C36.4396 24.1442 35.9267 24.8196 35.2491 25.2964Z" fill="#F53C42"/>
<path d="M33.1927 18.0208V18.0304C33.1927 18.4479 33.1759 18.6891 33.1759 18.6891L31.7757 19.349C31.7361 18.9699 31.6901 18.6019 31.6377 18.2452C30.1007 7.85941 22.9353 6.96313 20.2153 7.00632C21.0928 6.32223 22.1523 5.91162 23.2617 5.82569C23.7842 5.78591 24.3098 5.82597 24.8202 5.94447C32.594 7.42507 33.1879 15.6091 33.1927 18.0208Z" fill="#F53C42"/>
<path d="M13.6102 32.2245L13.8874 32.648C13.7818 32.5159 13.689 32.3741 13.6102 32.2245Z" fill="#FFA787"/>
<g style="mix-blend-mode:multiply" opacity="0.4">
<path d="M16.5558 35.4302L15.9667 35.8273L13.6102 32.7876C14.0435 33.191 15.2586 35.3442 16.5558 35.4302Z" fill="#FFA787"/>
</g>
<path d="M14.1296 25.8911C14.1689 25.8087 14.2205 25.7329 14.2828 25.6661C14.1954 25.7858 14.144 25.8684 14.1296 25.8911Z" fill="#5E1212"/>
<path d="M17.7662 24.7025C17.0401 24.7312 16.3186 24.8321 15.6125 25.0037C15.5765 24.8717 15.5237 24.6845 15.4589 24.4614C16.0948 23.9527 16.8884 23.682 17.7026 23.6959L17.7662 24.7025Z" fill="#5E1212"/>
<path d="M22.4384 20.9572L23.2272 22.0174C23.2272 22.0174 26.4303 19.4607 27.8816 20.1328C27.8816 20.1328 24.5494 19.0149 22.4384 20.9572Z" fill="#5E1212"/>
<g style="mix-blend-mode:multiply" opacity="0.4">
<path d="M33.1925 25.0366C34.6714 25.0366 35.8703 23.8377 35.8703 22.3588C35.8703 20.8798 34.6714 19.6809 33.1925 19.6809C31.7136 19.6809 30.5147 20.8798 30.5147 22.3588C30.5147 23.8377 31.7136 25.0366 33.1925 25.0366Z" fill="#F53C42"/>
</g>
<path d="M33.3176 24.7427C34.7965 24.7427 35.9954 23.5437 35.9954 22.0648C35.9954 20.5859 34.7965 19.387 33.3176 19.387C31.8387 19.387 30.6398 20.5859 30.6398 22.0648C30.6398 23.5437 31.8387 24.7427 33.3176 24.7427Z" fill="white"/>
<g style="mix-blend-mode:multiply" opacity="0.4">
<path d="M33.1927 18.0208C33.1843 17.8732 32.5459 12.5801 30.1547 10.1907C30.1547 10.1907 26.9247 6.24563 23.2616 5.82569C23.7842 5.78591 24.3097 5.82597 24.8202 5.94447C32.5939 7.42507 33.1879 15.6091 33.1927 18.0208Z" fill="#F53C42"/>
</g>
<g style="mix-blend-mode:multiply" opacity="0.4">
<path d="M35.2494 25.2964C36.2308 23.6958 36.5596 21.205 33.2001 18.0302C34.027 18.0827 34.8172 18.3906 35.4617 18.9114C36.1061 19.4321 36.573 20.1401 36.7979 20.9376C37.0228 21.735 36.9947 22.5827 36.7173 23.3634C36.4399 24.1442 35.927 24.8196 35.2494 25.2964Z" fill="#F53C42"/>
</g>
<path d="M41.6256 11.4903C41.592 11.8549 41.6785 12.2206 41.8719 12.5315C42.0654 12.8424 42.3551 13.0817 42.697 13.2127C42.9077 13.2881 43.1338 13.3172 43.3389 13.4083C43.5167 13.4874 43.6634 13.6231 43.7561 13.7942C43.839 13.9575 43.8879 14.1359 43.8997 14.3186C43.9115 14.5013 43.8859 14.6845 43.8246 14.8571C43.6245 15.3297 43.3178 15.7497 42.9285 16.0843C42.7969 16.2148 43.1123 16.2061 43.1859 16.1331C43.7544 15.5688 44.4 14.8534 44.1839 13.9842C44.1435 13.8071 44.0584 13.6434 43.9369 13.5084C43.8153 13.3735 43.6612 13.272 43.4893 13.2134C43.2771 13.1398 43.0509 13.1088 42.8454 13.0158C42.6693 12.9349 42.5108 12.8202 42.3789 12.6784C42.2238 12.5157 42.1052 12.3218 42.0308 12.1098C41.9565 11.8977 41.9281 11.6722 41.9476 11.4483C41.9602 11.3238 41.6363 11.3846 41.6256 11.4903L41.6256 11.4903Z" fill="#C47076"/>
<path d="M45.0137 14.1016C45.1528 14.3766 45.1989 14.6893 45.145 14.9928C45.0912 15.2962 44.9404 15.574 44.7152 15.7844C44.6647 15.8289 44.6804 15.879 44.7444 15.8934C44.7846 15.8998 44.8257 15.8977 44.865 15.8871C44.9042 15.8766 44.9409 15.8579 44.9724 15.8323C45.2224 15.6102 45.3932 15.3126 45.4588 14.9847C45.5244 14.6568 45.4813 14.3165 45.3361 14.0153C45.2815 13.9089 44.9686 14.0139 45.0137 14.1016Z" fill="#C47076"/>
<g style="mix-blend-mode:multiply" opacity="0.4">
<path d="M35.1088 10.0154C34.5725 8.56602 31.3186 6.12196 31.3186 6.12196L31.3018 6.05117C31.2982 5.98878 31.297 5.92519 31.297 5.86279C31.4142 5.88913 31.5349 5.89683 31.6545 5.88559C32.1244 5.88961 32.5793 6.05193 32.9455 6.34633C33.3075 6.64013 33.6319 6.97743 33.9114 7.3506C34.0939 7.57047 34.2622 7.8017 34.4153 8.0429C34.7148 8.58721 34.9427 9.16794 35.0932 9.77067C35.1251 9.84834 35.1306 9.93433 35.1088 10.0154Z" fill="#FFBA55"/>
</g>
<path d="M33.7207 26.1783C33.7221 26.2014 33.7217 26.2247 33.7195 26.2478C33.6857 27.168 33.4584 28.0707 33.0524 28.8971C32.9576 29.0986 32.8532 29.2966 32.744 29.4874C32.501 29.9067 32.2329 30.3109 31.9413 30.698C31.6702 31.0604 31.3858 31.4119 31.093 31.7575C30.6935 32.2326 30.2808 32.6982 29.8824 33.1721C28.5238 34.7867 27.3229 36.5276 26.2961 38.371L26.2709 38.4178C25.9554 38.9865 25.6574 39.564 25.377 40.1504C25.251 40.4083 25.1311 40.6675 25.0135 40.929C24.7855 41.4378 24.5707 41.9525 24.3692 42.4732C24.098 43.1691 23.8512 43.8738 23.6289 44.5873C23.5605 44.8045 23.4957 45.0241 23.4321 45.2424C22.9149 46.8384 22.6917 48.5149 22.7734 50.1906C22.8525 50.9948 23.0343 51.7855 23.3145 52.5434C23.5065 53.0918 23.7213 53.6365 23.888 54.1944H23.5113C23.4657 54.048 23.4165 53.9016 23.3673 53.7577C23.1106 53.0102 22.8058 52.2759 22.6198 51.5056C22.436 50.7132 22.3633 49.8991 22.4038 49.0867C22.4949 47.6481 22.7699 46.2272 23.2221 44.8585C23.2713 44.6953 23.3229 44.5333 23.3745 44.3726C23.5341 43.8759 23.7069 43.3815 23.8904 42.8932C24.2312 41.9861 24.6115 41.095 25.0315 40.2199C25.0471 40.1839 25.065 40.1491 25.0819 40.1132C25.3338 39.5936 25.5986 39.0813 25.8762 38.5762C26.0045 38.3422 26.1365 38.1098 26.2721 37.8791C26.6165 37.2851 26.98 36.7028 27.3628 36.1321C28.2355 34.8497 29.1859 33.622 30.2088 32.4558C30.4595 32.1643 30.7127 31.8715 30.9611 31.5727C31.2634 31.2056 31.5586 30.8312 31.8322 30.4437C32.2328 29.8898 32.5719 29.294 32.8436 28.6667C32.8688 28.6079 32.8916 28.5492 32.9156 28.4904C33.175 27.8427 33.3262 27.1569 33.3631 26.4602C33.3667 26.4038 33.3679 26.3475 33.3679 26.291C33.3704 26.2071 33.3692 26.1243 33.3655 26.0403C33.3655 26.0271 33.3655 26.0139 33.3643 26.0007C33.4663 25.9911 33.5683 25.9767 33.6715 25.9575C33.6871 25.9551 33.7027 25.9515 33.7183 25.9479V25.9623C33.7219 26.0343 33.7219 26.1062 33.7207 26.1783Z" fill="#FFBA55"/>
<path d="M20.0857 52.5304C20.0917 53.0859 20.1097 53.6402 20.1469 54.1946H19.7917C19.7389 53.3343 19.7317 52.4704 19.7353 51.6077C19.7437 49.0784 19.8445 46.5048 19.1738 44.0403C18.9458 43.2004 18.6435 42.3846 18.3699 41.5591C18.3219 41.4151 18.2751 41.2711 18.2295 41.1259C18.1527 40.8812 18.0796 40.634 18.0124 40.3844C17.7354 39.3155 17.5967 38.2155 17.5996 37.1113C17.5969 36.4626 17.6325 35.8144 17.7064 35.17C17.855 33.8612 18.1641 32.5757 18.6267 31.3425C18.6915 31.1733 18.7587 31.0041 18.8283 30.8374C18.8898 30.9401 18.9575 31.0391 19.031 31.1337C19.0118 31.1841 18.9926 31.2333 18.9734 31.2837C18.8858 31.5165 18.803 31.7528 18.7263 31.9904C18.4022 32.993 18.1772 34.025 18.0544 35.0716C17.9409 36.0243 17.916 36.9855 17.98 37.9428C18.0624 39.0248 18.2727 40.0933 18.6063 41.1259C18.6255 41.1835 18.6435 41.2423 18.6627 41.2999C18.6831 41.3623 18.7035 41.4247 18.7251 41.4871C19.1402 42.6123 19.4829 43.7628 19.7509 44.9318C19.87 45.559 19.9541 46.1922 20.0029 46.8287C20.0053 46.8491 20.0077 46.8707 20.0089 46.8911C20.1565 48.7629 20.0629 50.655 20.0857 52.5304Z" fill="#EFA94B"/>
</g>
</svg>
